<svg width="40" height="51" viewBox="0 0 40 51" fill="none" xmlns="http://www.w3.org/2000/svg">
<path d="M26.8867 31.9991C26.8867 28.5474 29.6849 25.7491 33.1367 25.7491C36.5885 25.7491 39.3867 28.5474 39.3867 31.9991V44.4991C39.3867 47.9509 36.5885 50.7491 33.1367 50.7491C29.6849 50.7491 26.8867 47.9509 26.8867 44.4991V31.9991Z" fill="#F7F7F7"/>
<path fill-rule="evenodd" clip-rule="evenodd" d="M33.1367 0.749146C29.6864 0.749146 26.8867 3.54737 26.8867 6.99915C26.8867 10.4509 29.6864 13.2491 33.1367 13.2491C36.5871 13.2491 39.3867 10.4509 39.3867 6.99915C39.3867 3.54737 36.5871 0.749146 33.1367 0.749146ZM33.1367 3.24758C31.0656 3.24758 29.3852 4.92721 29.3852 6.99915C29.3852 9.07108 31.0656 10.7507 33.1367 10.7507C35.2078 10.7507 36.8883 9.07108 36.8883 6.99915C36.8883 4.92721 35.2078 3.24758 33.1367 3.24758Z" fill="#F7F7F7"/>
<path d="M6.91505 38.2491C10.3668 38.2491 13.1934 41.0474 13.1934 44.4991C13.1934 47.9509 10.3668 50.7491 6.91505 50.7491C3.46327 50.7491 0.636719 47.9509 0.636719 44.4991C0.636719 41.0474 3.46327 38.2491 6.91505 38.2491Z" fill="#F7F7F7"/>
<path d="M0.636719 24.4299V7.06838C0.636719 3.57836 3.43494 0.749146 6.88672 0.749146C10.3385 0.749146 13.1367 3.57836 13.1367 7.06838V18.1107H19.3867C22.8385 18.1107 25.6367 20.9399 25.6367 24.4299C25.6367 27.9199 22.8385 30.7491 19.3867 30.7491H6.88672C3.43494 30.7491 0.636719 27.9199 0.636719 24.4299Z" fill="#F7F7F7"/>
</svg>
