<svg width="114" height="51" viewBox="0 0 114 51" fill="none" xmlns="http://www.w3.org/2000/svg">
<path fill-rule="evenodd" clip-rule="evenodd" d="M44.0679 0.5896C40.6161 0.5896 37.8179 3.41882 37.8179 6.90883V24.2704C37.8179 20.7804 40.6161 17.9511 44.0679 17.9511H50.3179V24.2704C50.3179 27.7604 47.5197 30.5896 44.0679 30.5896H56.5679C60.0197 30.5896 62.8179 27.7604 62.8179 24.2704C62.8179 20.7804 60.0197 17.9511 56.5679 17.9511H50.3179V6.90883C50.3179 3.41882 47.5197 0.5896 44.0679 0.5896Z" fill="#F7F7F7"/>
<path d="M37.8179 24.2704C37.8179 27.7604 40.6161 30.5896 44.0679 30.5896C47.5197 30.5896 50.3179 27.7604 50.3179 24.2704V17.9511H44.0679C40.6161 17.9511 37.8179 20.7804 37.8179 24.2704Z" fill="#F7F7F7"/>
<path d="M64.0679 31.8396C64.0679 28.3878 66.8661 25.5896 70.3179 25.5896C73.7697 25.5896 76.5679 28.3878 76.5679 31.8396V44.3396C76.5679 47.7914 73.7697 50.5896 70.3179 50.5896C66.8661 50.5896 64.0679 47.7914 64.0679 44.3396V31.8396Z" fill="#F7F7F7"/>
<path fill-rule="evenodd" clip-rule="evenodd" d="M70.3179 0.5896C66.8676 0.5896 64.0679 3.38782 64.0679 6.8396C64.0679 10.2914 66.8676 13.0896 70.3179 13.0896C73.7682 13.0896 76.5679 10.2914 76.5679 6.8396C76.5679 3.38782 73.7682 0.5896 70.3179 0.5896ZM70.3179 3.08803C68.2468 3.08803 66.5663 4.76766 66.5663 6.8396C66.5663 8.91154 68.2468 10.5912 70.3179 10.5912C72.389 10.5912 74.0695 8.91154 74.0695 6.8396C74.0695 4.76766 72.389 3.08803 70.3179 3.08803Z" fill="#F7F7F7"/>
<path d="M44.0962 38.0896C47.548 38.0896 50.3746 40.8878 50.3746 44.3396C50.3746 47.7914 47.548 50.5896 44.0962 50.5896C40.6445 50.5896 37.8179 47.7914 37.8179 44.3396C37.8179 40.8878 40.6445 38.0896 44.0962 38.0896Z" fill="#F7F7F7"/>
<path fill-rule="evenodd" clip-rule="evenodd" d="M23.419 8.65274C20.9782 6.21196 17.0209 6.21196 14.5801 8.65274L2.20576 21.0271C0.949967 22.2829 0.340287 23.9401 0.376717 25.5857C0.338202 27.2338 0.947823 28.8943 2.20558 30.1521L14.58 42.5264C17.0207 44.9672 20.978 44.9672 23.4188 42.5264C25.8596 40.0857 25.8596 36.1284 23.4188 33.6876L15.3209 25.5897L23.419 17.4916C25.8597 15.0508 25.8597 11.0935 23.419 8.65274ZM15.3209 25.5897L11.0444 21.3132C8.60364 18.8725 4.64636 18.8725 2.20558 21.3132C1.02257 22.4963 0.412943 24.0355 0.376717 25.5857C0.411093 27.1385 1.02077 28.681 2.20576 29.8659C4.64653 32.3067 8.60382 32.3067 11.0446 29.8659L15.3209 25.5897Z" fill="#F7F7F7"/>
<path d="M2.20576 29.8659C4.64653 32.3067 8.60382 32.3067 11.0446 29.8659L15.3209 25.5897L11.0444 21.3132C8.60364 18.8725 4.64636 18.8725 2.20558 21.3132C1.02257 22.4963 0.412943 24.0355 0.376717 25.5857C0.411093 27.1385 1.02077 28.681 2.20576 29.8659Z" fill="#F7F7F7"/>
<path fill-rule="evenodd" clip-rule="evenodd" d="M90.9662 8.65274C93.407 6.21196 97.3643 6.21196 99.8051 8.65274L112.179 21.0271C113.435 22.2829 114.045 23.94 114.008 25.5856C113.972 24.0355 113.363 22.4962 112.18 21.3132C109.739 18.8725 105.782 18.8725 103.341 21.3132L99.0643 25.5897L90.9662 17.4916C88.5255 15.0508 88.5255 11.0935 90.9662 8.65274ZM99.0643 25.5897L103.341 29.8659C105.781 32.3067 109.739 32.3067 112.179 29.8659C113.364 28.6809 113.974 27.1384 114.008 25.5856C114.047 27.2338 113.437 28.8943 112.18 30.1521L99.8052 42.5264C97.3645 44.9672 93.4072 44.9672 90.9664 42.5264C88.5256 40.0857 88.5256 36.1284 90.9664 33.6876L99.0643 25.5897Z" fill="#F7F7F7"/>
<path d="M103.341 29.8659C105.781 32.3067 109.739 32.3067 112.179 29.8659C113.364 28.6809 113.974 27.1384 114.008 25.5856C113.972 24.0355 113.363 22.4962 112.18 21.3132C109.739 18.8725 105.782 18.8725 103.341 21.3132L99.0643 25.5897L103.341 29.8659Z" fill="#F7F7F7"/>
</svg>