<svg width="115" height="51" viewBox="0 0 115 51" fill="none" xmlns="http://www.w3.org/2000/svg">
<path d="M64.3159 31.9991C64.3159 28.5474 67.1142 25.7491 70.5659 25.7491C74.0177 25.7491 76.8159 28.5474 76.8159 31.9991V44.4991C76.8159 47.9509 74.0177 50.7491 70.5659 50.7491C67.1142 50.7491 64.3159 47.9509 64.3159 44.4991V31.9991Z" fill="#F7F7F7"/>
<path fill-rule="evenodd" clip-rule="evenodd" d="M70.5659 0.749146C67.1156 0.749146 64.3159 3.54737 64.3159 6.99915C64.3159 10.4509 67.1156 13.2491 70.5659 13.2491C74.0163 13.2491 76.8159 10.4509 76.8159 6.99915C76.8159 3.54737 74.0163 0.749146 70.5659 0.749146ZM70.5659 3.24758C68.4949 3.24758 66.8144 4.92721 66.8144 6.99915C66.8144 9.07108 68.4949 10.7507 70.5659 10.7507C72.637 10.7507 74.3175 9.07108 74.3175 6.99915C74.3175 4.92721 72.637 3.24758 70.5659 3.24758Z" fill="#F7F7F7"/>
<path d="M44.3443 38.2491C47.7961 38.2491 50.6226 41.0474 50.6226 44.4991C50.6226 47.9509 47.7961 50.7491 44.3443 50.7491C40.8925 50.7491 38.0659 47.9509 38.0659 44.4991C38.0659 41.0474 40.8925 38.2491 44.3443 38.2491Z" fill="#F7F7F7"/>
<path fill-rule="evenodd" clip-rule="evenodd" d="M23.667 8.81229C21.2262 6.37151 17.269 6.37151 14.8282 8.81229L2.45381 21.1867C1.19801 22.4424 0.588333 24.0997 0.624764 25.7453C0.586248 27.3934 1.19587 29.0539 2.45363 30.3116L14.828 42.686C17.2688 45.1268 21.2261 45.1268 23.6668 42.686C26.1076 40.2452 26.1076 36.2879 23.6668 33.8471L15.5689 25.7492L23.667 17.6511C26.1078 15.2103 26.1078 11.2531 23.667 8.81229Z" fill="#F7F7F7"/>
<path d="M112.427 21.1867L100.053 8.81228C97.6123 6.37151 93.6551 6.37151 91.2143 8.81229C88.7735 11.2531 88.7735 15.2103 91.2143 17.6511L99.3124 25.7492L91.2144 33.8471C88.7737 36.2879 88.7737 40.2452 91.2144 42.686C93.6552 45.1268 97.6125 45.1268 100.053 42.686L112.428 30.3116C113.685 29.0538 114.295 27.3933 114.257 25.7451C114.293 24.0996 113.683 22.4424 112.427 21.1867Z" fill="#F7F7F7"/>
<path d="M38.0659 24.4299V7.06838C38.0659 3.57836 40.8642 0.749146 44.3159 0.749146C47.7677 0.749146 50.5659 3.57836 50.5659 7.06838V18.1107H56.8159C60.2677 18.1107 63.0659 20.9399 63.0659 24.4299C63.0659 27.9199 60.2677 30.7491 56.8159 30.7491H44.3159C40.8642 30.7491 38.0659 27.9199 38.0659 24.4299Z" fill="#F7F7F7"/>
</svg>
