<svg width="51" height="51" viewBox="0 0 51 51" fill="none" xmlns="http://www.w3.org/2000/svg">
<g clip-path="url(#clip0_2374_96)">
<path d="M20.8334 22.9921C21.0272 22.973 21.2418 23.0382 21.3727 23.1692L27.664 29.4604C27.8385 29.635 27.8963 29.9582 27.7931 30.1825C27.063 31.7697 26.1921 33.6535 25.8028 33.6535C25.5036 33.6535 24.9093 32.5108 24.3177 31.2612C23.6531 29.8573 22.9918 28.3167 22.7541 28.079C22.5164 27.8413 20.9759 27.1801 19.5719 26.5154C18.3223 25.9239 17.1797 25.3295 17.1797 25.0303C17.1797 24.641 19.0634 23.7702 20.6506 23.0401C20.7067 23.0143 20.7689 22.9985 20.8334 22.9921Z" fill="url(#paint0_linear_2374_96)"/>
<path d="M25.8023 16.4072C26.1015 16.4072 26.6958 17.5498 27.2874 18.7994C27.952 20.2033 28.6133 21.7439 28.851 21.9816C29.0887 22.2193 30.6293 22.8806 32.0332 23.5452C33.2828 24.1368 34.4254 24.7311 34.4254 25.0303C34.4254 25.4203 32.5345 26.2938 30.9454 27.0248C30.7262 27.1256 30.4101 27.0691 30.2395 26.8985L23.9341 20.5931C23.7635 20.4225 23.707 20.1064 23.8078 19.8872C24.5388 18.2981 25.4123 16.4072 25.8023 16.4072Z" fill="url(#paint1_linear_2374_96)"/>
<path d="M39.1277 16.4284C38.8162 16.4284 38.5048 16.5473 38.2671 16.7849L35.1131 19.9391C34.6378 20.4144 34.7471 21.0284 35.3578 21.3094C38.3147 22.6697 41.8539 24.304 41.8539 25.0303C41.8539 26.213 32.314 29.8689 31.4778 30.7051C30.6415 31.5414 26.9856 41.0812 25.8029 41.0812C25.0766 41.0812 23.4423 37.542 22.082 34.5851C21.8011 33.9744 21.187 33.8651 20.7117 34.3404L17.5576 37.4945C17.0824 37.9698 17.0824 38.7404 17.5576 39.2157L17.8731 39.5312C18.6134 38.791 19.5699 38.9611 20.0074 39.9122C20.5004 40.984 21.0181 42.1033 21.5342 43.1924C23.2358 46.7833 24.9349 50.0302 25.8029 50.0302C26.6608 50.0302 28.3559 46.7873 30.0521 43.212C31.9979 39.1104 33.9459 34.565 34.6417 33.8691C35.3376 33.1732 39.8831 31.2252 43.9848 29.2793C47.56 27.5831 50.8029 25.8882 50.8029 25.0303C50.8029 24.1623 47.556 22.4633 43.9651 20.7617C42.876 20.2456 41.7567 19.7279 40.685 19.2348C39.7338 18.7972 39.5635 17.8408 40.3038 17.1004L39.9884 16.7849C39.7508 16.5473 39.4392 16.4284 39.1277 16.4284Z" fill="#F7F7F7"/>
<path d="M25.8027 0.0303955C24.9449 0.0303955 23.2498 3.27334 21.5536 6.84866C19.6077 10.9502 17.6598 15.4956 16.9639 16.1915C16.268 16.8874 11.7225 18.8355 7.62091 20.7813C4.04566 22.4775 0.802734 24.1724 0.802734 25.0303C0.802734 25.8983 4.04966 27.5973 7.64059 29.2989C8.72966 29.815 9.84895 30.3328 10.9207 30.8258C11.8719 31.2634 12.0421 32.2198 11.3018 32.9602L11.6172 33.2757C12.0926 33.751 12.8632 33.751 13.3386 33.2757L16.4925 30.1215C16.9678 29.6462 16.8586 29.0322 16.2479 28.7512C13.2909 27.3909 9.7518 25.7566 9.7518 25.0303C9.7518 23.8477 19.2916 20.1917 20.1279 19.3555C20.9642 18.5192 24.6201 8.97937 25.8027 8.97937C26.529 8.97937 28.1634 12.5186 29.5237 15.4756C29.8046 16.0862 30.4187 16.1955 30.894 15.7202L34.048 12.5661C34.5233 12.0908 34.5233 11.3202 34.048 10.8449L33.7326 10.5294C32.9923 11.2696 32.0358 11.0995 31.5982 10.1484C31.1052 9.07665 30.5875 7.95728 30.0715 6.86825C28.3699 3.27728 26.6707 0.0303955 25.8027 0.0303955Z" fill="#F7F7F7"/>
</g>
<defs>
<linearGradient id="paint0_linear_2374_96" x1="17.9424" y1="23.8944" x2="30.4624" y2="27.154" gradientUnits="userSpaceOnUse">
<stop stop-color="white"/>
<stop offset="0.463433" stop-color="#FFA3BF"/>
<stop offset="1" stop-color="#9FFEE9"/>
</linearGradient>
<linearGradient id="paint1_linear_2374_96" x1="24.5207" y1="17.313" x2="37.0443" y2="20.5736" gradientUnits="userSpaceOnUse">
<stop stop-color="white"/>
<stop offset="0.463433" stop-color="#FFA3BF"/>
<stop offset="1" stop-color="#9FFEE9"/>
</linearGradient>
<clipPath id="clip0_2374_96">
<rect width="50" height="50" fill="white" transform="translate(0.802734 0.0302734)"/>
</clipPath>
</defs>
</svg>
